HIERARCHY
ROOT Hips
{
	OFFSET -0.001795 -0.223333 0.028219
	CHANNELS 6 Xposition Yposition Zposition Zrotation Yrotation Xrotation 
	JOINT LeftUpLeg
	{
		OFFSET 0.069520 -0.091406 -0.006815
		CHANNELS 3 Zrotation Yrotation Xrotation
		JOINT LeftLeg
		{
			OFFSET 0.034277 -0.375199 -0.004496
			CHANNELS 3 Zrotation Yrotation Xrotation
			JOINT LeftFoot
			{
				OFFSET -0.013596 -0.397961 -0.043693
				CHANNELS 3 Zrotation Yrotation Xrotation
				JOINT LeftToe
				{
					OFFSET 0.026358 -0.055791 0.119288
					CHANNELS 3 Zrotation Yrotation Xrotation
					End Site
					{
						OFFSET 0.000000 0.000000 0.000000
					}
				}
			}
		}
	}
	JOINT RightUpLeg
	{
		OFFSET -0.067670 -0.090522 -0.004320
		CHANNELS 3 Zrotation Yrotation Xrotation
		JOINT RightLeg
		{
			OFFSET -0.038290 -0.382569 -0.008850
			CHANNELS 3 Zrotation Yrotation Xrotation
			JOINT RightFoot
			{
				OFFSET 0.015774 -0.398415 -0.042312
				CHANNELS 3 Zrotation Yrotation Xrotation
				JOINT RightToe
				{
					OFFSET -0.025372 -0.048144 0.123348
					CHANNELS 3 Zrotation Yrotation Xrotation
					End Site
					{
						OFFSET 0.000000 0.000000 0.000000
					}
				}
			}
		}
	}
	JOINT Spine
	{
		OFFSET -0.002533 0.108963 -0.026696
		CHANNELS 3 Zrotation Yrotation Xrotation
		JOINT Spine1
		{
			OFFSET 0.005487 0.135180 0.001092
			CHANNELS 3 Zrotation Yrotation Xrotation
			JOINT Spine2
			{
				OFFSET 0.001457 0.052922 0.025425
				CHANNELS 3 Zrotation Yrotation Xrotation
				JOINT Neck
				{
					OFFSET -0.002778 0.213870 -0.042857
					CHANNELS 3 Zrotation Yrotation Xrotation
					JOINT Head
					{
						OFFSET 0.005152 0.064970 0.051349
						CHANNELS 3 Zrotation Yrotation Xrotation
						End Site
						{
							OFFSET 0.000000 0.000000 0.000000
						}
					}
				}
				JOINT LeftShoulder
				{
					OFFSET 0.078845 0.121749 -0.034090
					CHANNELS 3 Zrotation Yrotation Xrotation
					JOINT LeftArm
					{
						OFFSET 0.090977 0.030469 -0.008868
						CHANNELS 3 Zrotation Yrotation Xrotation
						JOINT LeftForeArm
						{
							OFFSET 0.259612 -0.012772 -0.027456
							CHANNELS 3 Zrotation Yrotation Xrotation
							JOINT LeftHand
							{
								OFFSET 0.249234 0.008986 -0.001171
								CHANNELS 3 Zrotation Yrotation Xrotation
								End Site
								{
									OFFSET 0.000000 0.000000 0.000000
								}
							}
						}
					}
				}
				JOINT RightShoulder
				{
					OFFSET -0.081759 0.118833 -0.038615
					CHANNELS 3 Zrotation Yrotation Xrotation
					JOINT RightArm
					{
						OFFSET -0.096012 0.032551 -0.009143
						CHANNELS 3 Zrotation Yrotation Xrotation
						JOINT RightForeArm
						{
							OFFSET -0.253742 -0.013329 -0.021401
							CHANNELS 3 Zrotation Yrotation Xrotation
							JOINT RightHand
							{
								OFFSET -0.255298 0.007772 -0.005559
								CHANNELS 3 Zrotation Yrotation Xrotation
								End Site
								{
									OFFSET 0.000000 0.000000 0.000000
								}
							}
						}
					}
				}
			}
		}
	}
}
MOTION
Frames: 15
Frame Time: 0.050000
0.000000 0.958199 0.000000 -0.869406 -1.163299 -3.546760 -2.950843 0.790595 6.594092 1.286946 -0.107864 -0.837143 1.980715 6.980118 8.918436 0.000000 0.000000 0.000000 2.329384 -0.759977 6.066623 0.047753 0.064006 1.735127 -0.030869 -4.167181 9.057980 0.000000 0.000000 0.000000 0.696344 -0.385055 8.407267 -0.767258 0.262287 7.426102 0.347718 0.533718 -6.074637 1.184813 -0.837428 -0.647590 0.000000 0.000000 0.000000 -30.691552 -0.415085 -3.380516 -40.133775 -2.072876 -3.243261 -9.818528 -21.515794 2.562935 0.000000 0.000000 0.000000 28.426124 0.114398 -3.237158 45.066200 1.415816 -2.888510 7.068530 21.455233 1.793440 0.000000 0.000000 0.000000 
0.000388 0.958250 0.001076 -0.864784 -0.731362 -3.557890 -2.800420 0.847606 7.183367 1.740847 -0.104833 -1.841494 0.735287 4.972312 9.292713 0.000000 0.000000 0.000000 2.237645 -0.750616 6.020784 0.295214 0.019821 1.371837 -0.290952 -5.091141 10.314046 0.000000 0.000000 0.000000 0.453110 -0.386200 8.768260 -0.564534 0.124629 7.855151 0.137976 0.153177 -7.312628 0.614785 -0.315301 -1.665337 0.000000 0.000000 0.000000 -29.609976 0.278591 -3.705032 -41.366178 -1.644125 -3.398851 -9.760500 -21.998286 2.601001 0.000000 0.000000 0.000000 27.698581 0.409179 -3.051292 46.465425 0.171620 -3.326274 7.082253 23.756873 1.987212 0.000000 0.000000 0.000000 
0.000586 0.958128 0.002006 -0.760258 -0.864051 -3.513120 -2.902461 0.807569 6.778488 1.883559 -0.171625 -0.803917 0.508502 4.339539 8.594496 0.000000 0.000000 0.000000 2.410038 -0.760403 6.008910 0.178488 0.024116 1.121272 -0.888869 -6.393585 10.653863 0.000000 0.000000 0.000000 0.558372 -0.423044 9.438520 -0.745282 0.269633 5.673690 0.466731 0.151129 -5.991529 0.229773 -0.066066 -1.311346 0.000000 0.000000 0.000000 -29.498143 -0.276658 -3.208831 -40.757495 -1.426994 -3.537706 -10.193818 -21.472677 2.638218 0.000000 0.000000 0.000000 27.915374 0.918185 -2.768110 45.468419 -0.025391 -3.412800 6.470092 24.255613 1.922975 0.000000 0.000000 0.000000 
0.000580 0.958993 0.003023 -0.648505 -0.776775 -3.873069 -3.168373 0.911173 7.523839 2.274571 -0.199323 -1.056136 0.247694 3.828121 8.417578 0.000000 0.000000 0.000000 2.352865 -0.791495 6.321301 0.410465 0.020494 1.763434 -1.325161 -7.041668 10.000680 0.000000 0.000000 0.000000 0.182048 -0.441412 10.613205 -0.849089 0.314181 6.432611 1.168319 -0.304093 -7.434594 0.031465 0.103623 -1.541699 0.000000 0.000000 0.000000 -30.054434 0.682348 -3.728228 -40.070787 -1.507618 -3.411280 -10.763918 -21.706020 2.785645 0.000000 0.000000 0.000000 27.429157 1.224000 -2.813870 44.954647 0.068080 -3.142559 6.836592 24.287639 1.951154 0.000000 0.000000 0.000000 
0.000492 0.959735 0.004194 -0.428651 -0.699969 -3.742114 -3.329626 0.861989 7.026254 2.135958 -0.207537 -0.623563 0.217690 4.032253 9.170282 0.000000 0.000000 0.000000 2.254604 -0.763479 6.136317 0.305529 0.045075 2.078666 -1.502101 -7.345719 9.869383 0.000000 0.000000 0.000000 0.192220 -0.468481 11.248036 -0.782758 0.275294 6.424796 0.961492 -0.116646 -7.768167 -0.333974 0.358479 -1.408823 0.000000 0.000000 0.000000 -30.344893 0.317818 -3.645543 -39.225068 -1.639180 -3.240838 -10.662564 -21.690566 2.754446 0.000000 0.000000 0.000000 27.002708 1.214450 -2.681215 44.976372 0.301808 -3.061955 6.513726 24.123940 1.884424 0.000000 0.000000 0.000000 
0.000196 0.960395 0.006116 -0.292899 -0.322141 -3.658702 -3.315703 0.889970 7.277321 2.152250 -0.198355 -0.802076 -0.303356 3.077835 8.943522 0.000000 0.000000 0.000000 2.423470 -0.750038 5.908236 0.108610 0.087377 2.543316 -2.013367 -8.346586 9.983508 0.000000 0.000000 0.000000 -0.050533 -0.471705 11.816181 -0.445245 0.103878 5.191380 0.878735 -0.172232 -7.088448 -0.255408 0.311746 -1.550733 0.000000 0.000000 0.000000 -30.665506 0.874413 -4.069752 -38.962408 -1.722881 -3.234114 -10.706335 -21.628433 2.754932 0.000000 0.000000 0.000000 27.019297 1.458803 -2.456716 44.521035 0.388658 -3.071525 6.153210 23.800517 1.804672 0.000000 0.000000 0.000000 
-0.000385 0.960779 0.009100 -0.129612 -0.164935 -3.343516 -3.222409 0.860342 7.068532 1.854091 -0.151063 -1.103700 -0.560209 2.978026 9.873895 0.000000 0.000000 0.000000 2.239611 -0.676813 5.378075 0.235626 0.083645 2.886351 -2.173442 -8.813609 10.641809 0.000000 0.000000 0.000000 0.028039 -0.485164 11.923344 -0.550287 0.157285 5.214242 0.825822 -0.424395 -7.394131 -0.045710 0.166153 -1.628155 0.000000 0.000000 0.000000 -31.154933 1.101409 -4.232251 -38.684057 -1.612618 -3.238331 -10.368188 -21.525076 2.682057 0.000000 0.000000 0.000000 26.669234 1.504851 -2.457923 44.412024 0.144331 -3.102427 6.182667 23.768826 1.799081 0.000000 0.000000 0.000000 
-0.001568 0.960942 0.013431 -0.001562 -0.314169 -3.217663 -3.050959 0.856103 7.109282 1.727265 -0.138055 -1.114508 -0.993679 2.416915 10.430323 0.000000 0.000000 0.000000 2.323573 -0.643637 5.058337 -0.011863 0.150422 3.716579 -2.218737 -8.864834 10.433184 0.000000 0.000000 0.000000 0.195133 -0.524851 12.519928 -0.473040 0.121462 5.061522 0.443369 -0.143236 -7.819585 0.237416 -0.067940 -1.289737 0.000000 0.000000 0.000000 -31.091454 1.239913 -4.465011 -38.422818 -1.325941 -3.226386 -10.722691 -21.477381 2.727905 0.000000 0.000000 0.000000 27.070045 1.235554 -2.571852 43.533553 -0.149940 -3.125176 6.881386 23.610804 1.931362 0.000000 0.000000 0.000000 
-0.003766 0.960832 0.019072 0.186461 -0.400528 -3.063017 -3.087590 0.905752 7.482998 1.904272 -0.130790 -1.615914 -1.349933 2.005898 10.992270 0.000000 0.000000 0.000000 2.031837 -0.599686 4.832169 0.378149 0.107018 4.011191 -2.949641 -9.867328 8.610744 0.000000 0.000000 0.000000 0.335226 -0.540769 12.586305 -0.393839 0.065239 5.721455 0.362474 -0.364637 -8.632062 -0.067656 0.165002 -1.397209 0.000000 0.000000 0.000000 -31.463488 1.618255 -4.711485 -38.140175 -0.889463 -3.295179 -10.910662 -21.059223 2.711391 0.000000 0.000000 0.000000 27.063969 1.611301 -2.456868 43.298778 -0.780538 -3.220551 6.969152 23.551404 1.926951 0.000000 0.000000 0.000000 
-0.007410 0.960540 0.025954 0.490394 -0.696638 -3.037315 -3.011912 0.935346 7.745838 1.601804 -0.110162 -1.451351 -1.317932 2.140271 11.312369 0.000000 0.000000 0.000000 2.051721 -0.623649 5.039072 0.142227 0.169488 4.714444 -3.270315 -10.297947 7.588005 0.000000 0.000000 0.000000 0.332483 -0.551746 12.981367 -0.656922 0.213718 5.920692 0.375027 -0.242555 -9.166780 -0.283767 0.316497 -1.348384 0.000000 0.000000 0.000000 -31.496190 1.782884 -4.844303 -38.207142 -0.469488 -3.383840 -10.732512 -20.604370 2.613975 0.000000 0.000000 0.000000 26.893304 1.457798 -2.562636 43.084743 -1.086091 -3.255673 7.626572 23.151183 2.007793 0.000000 0.000000 0.000000 
-0.012534 0.959507 0.034131 0.662183 -0.713096 -3.237737 -2.735422 0.998607 8.457983 1.640039 -0.116475 -1.404195 -1.673344 1.508975 11.236047 0.000000 0.000000 0.000000 2.296395 -0.658053 5.216447 0.200720 0.192072 5.504943 -3.637776 -11.243231 8.495732 0.000000 0.000000 0.000000 0.481482 -0.588102 13.477789 -0.570525 0.153805 6.612497 0.070329 -0.343724 -9.916311 -0.320525 0.314241 -0.952989 0.000000 0.000000 0.000000 -31.092942 2.127806 -5.045858 -38.766084 -0.495346 -3.372004 -10.435827 -19.728186 2.440439 0.000000 0.000000 0.000000 26.659642 1.576554 -2.497917 43.615188 -1.400149 -3.344756 7.711161 23.257286 2.023046 0.000000 0.000000 0.000000 
-0.018836 0.957094 0.043608 0.805519 -0.909729 -3.397676 -2.460715 0.987723 8.536353 1.532436 -0.193711 0.432023 -1.306425 1.383555 9.312187 0.000000 0.000000 0.000000 2.653074 -0.744182 5.760948 0.100839 0.231148 6.054731 -3.876821 -11.514103 7.426064 0.000000 0.000000 0.000000 0.699703 -0.640142 14.175443 -1.009888 0.405066 6.784882 0.611090 -0.714857 -10.320861 -1.161380 0.980052 -1.885080 0.000000 0.000000 0.000000 -31.483869 2.661858 -5.239513 -38.852436 -0.389811 -3.450996 -10.208243 -19.429537 2.377546 0.000000 0.000000 0.000000 26.227356 1.294091 -2.850347 43.906132 -1.242435 -3.220556 7.345998 22.519458 1.856466 0.000000 0.000000 0.000000 
-0.025803 0.954069 0.055079 1.034706 -0.704440 -3.603889 -1.805122 0.851249 7.785106 1.268500 -0.307389 3.635299 -1.877668 -0.132184 8.041410 0.000000 0.000000 0.000000 3.080172 -0.916801 6.918451 -0.000150 0.244281 6.014010 -4.378024 -12.267845 6.078161 0.000000 0.000000 0.000000 0.800028 -0.694976 15.080387 -0.948310 0.362946 6.957612 0.383368 -1.055046 -10.656639 -1.478898 1.201064 -1.800889 0.000000 0.000000 0.000000 -31.332705 2.589047 -5.121172 -39.249044 -0.768269 -3.364968 -9.713024 -19.362049 2.286088 0.000000 0.000000 0.000000 26.025747 1.423270 -2.821542 44.768373 -1.292980 -3.272651 6.681701 22.592153 1.728642 0.000000 0.000000 0.000000 
-0.032957 0.949508 0.068241 1.228948 -0.045747 -3.514821 -1.353357 0.480958 4.599174 0.521396 -0.474461 10.569281 -1.034498 0.848538 6.560545 0.000000 0.000000 0.000000 3.222652 -1.078603 8.058019 0.402446 0.187645 6.335465 -4.988914 -13.198631 4.045285 0.000000 0.000000 0.000000 0.659637 -0.726277 15.885112 -0.671173 0.176974 7.455136 0.427915 -1.257342 -11.412665 -1.607449 1.347617 -3.006312 0.000000 0.000000 0.000000 -31.516955 3.010397 -5.479892 -39.055620 -1.172182 -3.161873 -10.080081 -19.488199 2.356126 0.000000 0.000000 0.000000 25.635239 1.530165 -2.719142 44.916228 -0.705387 -3.014974 6.372287 22.087316 1.629327 0.000000 0.000000 0.000000 
-0.039967 0.945543 0.083226 0.964021 -0.737389 -2.842133 0.051865 0.011178 0.120607 -1.592225 -0.191456 19.461949 1.115980 4.249879 5.013264 0.000000 0.000000 0.000000 4.069639 -1.186202 8.299878 0.097066 0.267126 6.958779 -4.844253 -12.807040 3.668614 0.000000 0.000000 0.000000 1.271517 -0.797595 15.848868 -0.873490 0.311545 7.482834 0.420767 -0.579579 -11.667151 -2.131374 1.701549 -3.139556 0.000000 0.000000 0.000000 -32.262878 3.729389 -6.247669 -38.941753 -1.106227 -3.102116 -10.205255 -20.550586 2.493476 0.000000 0.000000 0.000000 25.094925 1.697704 -2.420886 44.766457 0.615434 -2.539572 6.347396 21.270730 1.579600 0.000000 0.000000 0.000000 
